<svg width="479.6" height="109.6" xmlns="http://www.w3.org/2000/svg">
 <defs>
  <filter height="200%" width="200%" y="-50%" x="-50%" id="svg_19_blur">
   <feGaussianBlur stdDeviation="0" in="SourceGraphic"/>
  </filter>
 </defs>
 <g>
  <title>background</title>
  <rect fill="none" id="canvas_background" height="402" width="582" y="-1" x="-1"/>
 </g>
 <g>
  <title>Layer 1</title>
  <g stroke="null" id="svg_1">
   <path stroke="null" id="svg_2" d="m77.820545,218.847215l27.918658,0l0,9.610896l-38.739203,0l0,-7.517434l26.844864,-55.096128l-26.597065,0l0,-9.706054l37.500209,0l0,7.231961l-26.927463,55.476757z" fill="#1DC1F8"/>
   <path stroke="null" id="svg_3" d="m138.366037,228.553268c-0.330398,-1.332203 -0.578197,-2.664407 -0.825996,-3.99661c-0.247799,-1.332203 -0.330398,-2.569249 -0.412998,-3.901453c-1.238994,2.474092 -2.890985,4.662712 -4.955975,6.375545c-2.06499,1.712833 -4.377778,2.569249 -6.938365,2.569249c-4.295178,0 -7.516562,-1.427361 -9.82935,-4.282082c-2.312788,-2.854722 -3.386583,-6.851332 -3.386583,-11.894674c0,-5.233656 1.569392,-9.230267 4.708176,-12.180146c3.138784,-2.854722 7.516562,-4.37724 13.215933,-4.37724l7.103564,0l0,-4.757869c0,-2.854722 -0.660797,-5.043342 -1.89979,-6.56586c-1.238994,-1.617676 -3.056184,-2.378935 -5.451572,-2.378935c-2.06499,0 -3.716981,0.666102 -4.955975,1.998305c-1.238994,1.332203 -1.817191,3.045036 -1.817191,5.138499l-8.838155,-0.095157l0,-0.285472c-0.165199,-4.282082 1.238994,-7.993221 4.295178,-11.323729c3.056184,-3.235351 7.020964,-4.948184 11.976939,-4.948184c4.790776,0 8.590356,1.617676 11.563941,4.757869c2.890985,3.140194 4.377778,7.707748 4.377778,13.702664l0,23.884504c0,2.18862 0.0826,4.37724 0.330398,6.375545s0.578197,3.99661 1.073795,5.994915l-9.333753,0l0,0.190315zm-11.233543,-8.659322c2.312788,0 4.377778,-0.761259 6.194969,-2.283777c1.817191,-1.522518 3.056184,-3.235351 3.716981,-5.233656l0,-7.993221l-7.268763,0c-2.643187,0 -4.790776,0.856416 -6.277568,2.569249c-1.486792,1.712833 -2.230189,3.806296 -2.230189,6.090073c0,2.093463 0.495597,3.711138 1.569392,4.853027c0.908595,1.332203 2.395388,1.998305 4.295178,1.998305z" fill="#1DC1F8"/>
   <path stroke="null" id="svg_4" d="m164.137106,174.789344l0.495597,7.707748c1.321593,-2.759564 3.056184,-4.853027 5.038574,-6.470702c2.06499,-1.522518 4.295178,-2.283777 6.855765,-2.283777c4.295178,0 7.599161,1.712833 9.994549,5.138499c2.395388,3.425666 3.551782,8.849637 3.551782,16.176756l0,33.400243l-9.168553,0l0,-33.305086c0,-4.186925 -0.578197,-7.136804 -1.817191,-8.849637c-1.238994,-1.712833 -3.138784,-2.664407 -5.616771,-2.664407c-1.98239,0 -3.634382,0.475787 -5.121174,1.427361c-1.404193,0.951574 -2.560587,2.283777 -3.469182,4.091768l0,39.395159l-9.168553,0l0,-53.763924l8.425157,0z" fill="#1DC1F8"/>
   <path stroke="null" id="svg_5" d="m211.384066,161.657625l0,13.13172l7.351363,0l0,8.944794l-7.351363,0l0,29.689105c0,2.18862 0.330398,3.806296 1.073795,4.757869c0.743396,0.951574 1.734591,1.427361 2.890985,1.427361c0.495597,0 0.991195,-0.095157 1.486792,-0.190315c0.495597,-0.095157 0.908595,-0.285472 1.321593,-0.475787l0.991195,8.849637c-0.743396,0.570944 -1.734591,1.046731 -2.808386,1.332203c-1.073795,0.285472 -2.147589,0.475787 -3.303983,0.475787c-3.386583,0 -6.029769,-1.332203 -7.92956,-3.901453s-2.890985,-6.661017 -2.890985,-12.275303l0,-29.689105l-6.194969,0l0,-8.944794l6.194969,0l0,-13.13172l9.168553,0z" fill="#1DC1F8"/>
   <path stroke="null" id="svg_6" d="m243.432703,229.504842c-5.94717,0 -10.655346,-2.474092 -13.959329,-7.422276c-3.386583,-4.948184 -5.038574,-11.323729 -5.038574,-19.221792l0,-1.998305c0,-7.898063 1.651992,-14.368766 5.038574,-19.507265c3.386583,-5.138499 7.681761,-7.612591 13.050734,-7.612591c5.451572,0 9.664151,2.18862 12.472537,6.661017c2.808386,4.472397 4.212579,10.372155 4.212579,17.889589l0,6.470702l-25.358071,0l-0.0826,0.285472c0.0826,4.37724 0.991195,7.993221 2.643187,10.752785c1.651992,2.759564 4.129979,4.091768 7.516562,4.091768c2.477987,0 4.625576,-0.38063 6.442767,-1.237046c1.817191,-0.761259 3.551782,-1.903148 5.121174,-3.425666l2.973585,7.898063c-1.569392,1.80799 -3.634382,3.330509 -6.194969,4.567555c-2.477987,1.237046 -5.451572,1.80799 -8.838155,1.80799zm-0.991195,-46.056176c-2.395388,0 -4.295178,1.141889 -5.781971,3.425666s-2.312788,5.233656 -2.643187,8.849637l0.0826,0.285472l15.941719,0l0,-0.951574c0,-3.425666 -0.578197,-6.280388 -1.817191,-8.37385c-1.156394,-2.18862 -3.138784,-3.235351 -5.781971,-3.235351z" fill="#1DC1F8"/>
   <path stroke="null" id="svg_7" d="m329.749265,228.553268l-9.168553,0l0,-30.926151l-24.614675,0l0,30.830994l-9.168553,0l0,-72.319615l9.168553,0l0,31.782568l24.614675,0l0,-31.782568l9.168553,0l0,72.414772z" fill="#1DC1F8"/>
   <path stroke="null" id="svg_8" d="m338.67002,201.147941c0,-7.993221 1.651992,-14.55908 5.038574,-19.697579c3.303983,-5.138499 7.92956,-7.707748 13.71153,-7.707748c5.86457,0 10.490147,2.569249 13.79413,7.707748c3.303983,5.138499 5.038574,11.704359 5.038574,19.697579l0,1.046731c0,8.088378 -1.651992,14.654238 -5.038574,19.792737c-3.303983,5.043342 -7.92956,7.612591 -13.71153,7.612591c-5.86457,0 -10.407547,-2.569249 -13.79413,-7.612591c-3.303983,-5.138499 -5.038574,-11.704359 -5.038574,-19.697579l0,-1.141889zm9.251153,1.046731c0,5.233656 0.743396,9.515739 2.312788,12.846247c1.569392,3.235351 3.96478,4.948184 7.268763,4.948184c3.221384,0 5.616771,-1.617676 7.186163,-4.948184c1.569392,-3.330509 2.395388,-7.517434 2.395388,-12.75109l0,-1.046731c0,-5.138499 -0.825996,-9.325424 -2.395388,-12.655933c-1.569392,-3.330509 -4.047379,-4.948184 -7.268763,-4.948184c-3.221384,0 -5.616771,1.617676 -7.186163,4.948184c-1.569392,3.330509 -2.395388,7.517434 -2.395388,12.655933l0,0.951574l0.0826,0z" fill="#1DC1F8"/>
   <path stroke="null" id="svg_9" d="m395.994128,161.657625l0,13.13172l7.351363,0l0,8.944794l-7.351363,0l0,29.689105c0,2.18862 0.330398,3.806296 1.073795,4.757869c0.743396,0.951574 1.734591,1.427361 2.890985,1.427361c0.495597,0 0.991195,-0.095157 1.486792,-0.190315c0.495597,-0.095157 0.908595,-0.285472 1.321593,-0.475787l0.991195,8.849637c-0.743396,0.570944 -1.734591,1.046731 -2.808386,1.332203c-1.073795,0.285472 -2.147589,0.475787 -3.303983,0.475787c-3.386583,0 -6.029769,-1.332203 -7.92956,-3.901453c-1.89979,-2.569249 -2.890985,-6.661017 -2.890985,-12.275303l0,-29.689105l-6.194969,0l0,-8.944794l6.194969,0l0,-13.13172l9.168553,0z" fill="#1DC1F8"/>
   <path stroke="null" id="svg_10" d="m428.042765,229.504842c-5.94717,0 -10.655346,-2.474092 -13.959329,-7.422276c-3.386583,-4.948184 -5.038574,-11.323729 -5.038574,-19.221792l0,-1.998305c0,-7.898063 1.651992,-14.368766 5.038574,-19.507265s7.681761,-7.612591 13.050734,-7.612591c5.451572,0 9.664151,2.18862 12.472537,6.661017c2.808386,4.472397 4.212579,10.372155 4.212579,17.889589l0,6.470702l-25.275472,0l-0.0826,0.285472c0.0826,4.37724 0.991195,7.993221 2.643187,10.752785c1.651992,2.759564 4.129979,4.091768 7.516562,4.091768c2.477987,0 4.625576,-0.38063 6.442767,-1.237046c1.817191,-0.761259 3.551782,-1.903148 5.121174,-3.425666l2.973585,7.898063c-1.569392,1.80799 -3.634382,3.330509 -6.194969,4.567555c-2.560587,1.237046 -5.534172,1.80799 -8.920755,1.80799zm-0.991195,-46.056176c-2.395388,0 -4.295178,1.141889 -5.781971,3.425666s-2.312788,5.233656 -2.643187,8.849637l0.0826,0.285472l15.941719,0l0,-0.951574c0,-3.425666 -0.578197,-6.280388 -1.817191,-8.37385s-3.138784,-3.235351 -5.781971,-3.235351z" fill="#1DC1F8"/>
   <path stroke="null" id="svg_11" d="m460.999998,228.553268l-9.168553,0l0,-77.553271l9.168553,0l0,77.553271z" fill="#1DC1F8"/>
  </g>
  <g id="svg_12">
   <path id="svg_13" d="m391.1,99.4c0,0.2 -0.1,0.3 -0.3,0.5l-3.8,3.7l0.9,5.2c0,0 0,0.1 0,0.2c0,0.1 0,0.3 -0.1,0.4c-0.1,0.1 -0.2,0.2 -0.3,0.2c-0.1,0 -0.3,0 -0.4,-0.1l-4.7,-2.5l-4.7,2.5c-0.2,0.1 -0.3,0.1 -0.4,0.1c-0.1,0 -0.3,-0.1 -0.3,-0.2c-0.1,-0.1 -0.1,-0.2 -0.1,-0.4c0,0 0,-0.1 0,-0.2l0.9,-5.2l-3.8,-3.7c-0.2,-0.2 -0.3,-0.4 -0.3,-0.5c0,-0.3 0.2,-0.4 0.6,-0.5l5.3,-0.8l2.4,-4.8c0.1,-0.3 0.3,-0.4 0.5,-0.4s0.4,0.1 0.5,0.4l2.4,4.8l5.3,0.8c0.2,0.1 0.4,0.2 0.4,0.5z" fill="#FFB600"/>
   <path id="svg_14" d="m413.2,99.4c0,0.2 -0.1,0.3 -0.3,0.5l-3.8,3.7l0.9,5.2c0,0 0,0.1 0,0.2c0,0.1 0,0.3 -0.1,0.4c-0.1,0.1 -0.2,0.2 -0.3,0.2c-0.1,0 -0.3,0 -0.4,-0.1l-4.7,-2.5l-4.7,2.5c-0.2,0.1 -0.3,0.1 -0.4,0.1c-0.1,0 -0.3,-0.1 -0.3,-0.2c-0.1,-0.1 -0.1,-0.2 -0.1,-0.4c0,0 0,-0.1 0,-0.2l0.9,-5.2l-3.8,-3.7c-0.2,-0.2 -0.3,-0.4 -0.3,-0.5c0,-0.3 0.2,-0.4 0.6,-0.5l5.3,-0.8l2.4,-4.8c0.1,-0.3 0.3,-0.4 0.5,-0.4c0.2,0 0.4,0.1 0.5,0.4l2.4,4.8l5.3,0.8c0.2,0.1 0.4,0.2 0.4,0.5z" fill="#FFB600"/>
   <path id="svg_15" d="m435.4,99.4c0,0.2 -0.1,0.3 -0.3,0.5l-3.8,3.7l0.9,5.2c0,0 0,0.1 0,0.2c0,0.1 0,0.3 -0.1,0.4c-0.1,0.1 -0.2,0.2 -0.3,0.2c-0.1,0 -0.3,0 -0.4,-0.1l-4.7,-2.5l-4.7,2.5c-0.2,0.1 -0.3,0.1 -0.4,0.1c-0.1,0 -0.3,-0.1 -0.3,-0.2c-0.1,-0.1 -0.1,-0.2 -0.1,-0.4c0,0 0,-0.1 0,-0.2l0.9,-5.2l-3.8,-3.7c-0.2,-0.2 -0.3,-0.4 -0.3,-0.5c0,-0.3 0.2,-0.4 0.6,-0.5l5.3,-0.8l2.4,-4.8c0.1,-0.3 0.3,-0.4 0.5,-0.4s0.4,0.1 0.5,0.4l2.4,4.8l5.3,0.8c0.2,0.1 0.4,0.2 0.4,0.5z" fill="#FFB600"/>
   <path id="svg_16" d="m457.5,99.4c0,0.2 -0.1,0.3 -0.3,0.5l-3.8,3.7l0.9,5.2c0,0 0,0.1 0,0.2c0,0.1 0,0.3 -0.1,0.4c-0.1,0.1 -0.2,0.2 -0.3,0.2c-0.1,0 -0.3,0 -0.4,-0.1l-4.7,-2.5l-4.7,2.5c-0.2,0.1 -0.3,0.1 -0.4,0.1c-0.1,0 -0.3,-0.1 -0.3,-0.2c-0.1,-0.1 -0.1,-0.2 -0.1,-0.4c0,0 0,-0.1 0,-0.2l0.9,-5.2l-3.8,-3.7c-0.2,-0.2 -0.3,-0.4 -0.3,-0.5c0,-0.3 0.2,-0.4 0.6,-0.5l5.3,-0.8l2.4,-4.8c0.1,-0.3 0.3,-0.4 0.5,-0.4c0.2,0 0.4,0.1 0.5,0.4l2.4,4.8l5.3,0.8c0.2,0.1 0.4,0.2 0.4,0.5z" fill="#FFB600"/>
   <path id="svg_17" d="m479.6,99.4c0,0.2 -0.1,0.3 -0.3,0.5l-3.8,3.7l0.9,5.2c0,0 0,0.1 0,0.2c0,0.1 0,0.3 -0.1,0.4c-0.1,0.1 -0.2,0.2 -0.3,0.2c-0.1,0 -0.3,0 -0.4,-0.1l-4.7,-2.5l-4.7,2.5c-0.2,0.1 -0.3,0.1 -0.4,0.1c-0.1,0 -0.3,-0.1 -0.3,-0.2c-0.1,-0.1 -0.1,-0.2 -0.1,-0.4c0,0 0,-0.1 0,-0.2l0.9,-5.2l-3.8,-3.7c-0.2,-0.2 -0.3,-0.4 -0.3,-0.5c0,-0.3 0.2,-0.4 0.6,-0.5l5.3,-0.8l2.4,-4.8c0.1,-0.3 0.3,-0.4 0.5,-0.4c0.2,0 0.4,0.1 0.5,0.4l2.4,4.8l5.3,0.8c0.2,0.1 0.4,0.2 0.4,0.5z" fill="#FFB600"/>
  </g>
  <text stroke="#000" transform="matrix(10.92161908808799,0,0,2.5267322075174037,-1476.356529896042,-82.74306936608096) " xml:space="preserve" text-anchor="start" font-family="Helvetica, Arial, sans-serif" font-size="24" id="svg_18" y="60.570836" x="195.299988" fill-opacity="null" stroke-opacity="null" stroke-width="0" fill="#000000">Jin</text>
  <text filter="url(#svg_19_blur)" font-style="normal" stroke="#000" transform="matrix(2.9892938469269783,0,0,2.865396708005075,-710.0761636898633,-115.67053434223628) " xml:space="preserve" text-anchor="start" font-family="Oswald, sans-serif" font-size="22" id="svg_19" y="66.570836" x="244.299988" stroke-opacity="null" stroke-width="0" fill="#7DD8B5">JinChen Hotel</text>
  <path id="svg_20" d="m403.299988,11.570836" opacity="0.5" fill-opacity="null" stroke-opacity="null" stroke-width="0" stroke="#000" fill="#000000"/>
 </g>
</svg>